<svg width="128" height="128" viewBox="0 0 128 128" xmlns="http://www.w3.org/2000/svg">
  <!-- Background circle -->
  <circle cx="64" cy="64" r="60" fill="#4A90E2" stroke="#357ABD" stroke-width="2"/>

  <!-- Light bulb (idea) -->
  <g transform="translate(64, 45)">
    <!-- Bulb body -->
    <path d="M-16 0 C-16 -8.8 -8.8 -16 0 -16 S16 -8.8 16 0 C16 8 12 12 12 20 L-12 20 C-12 12 -16 8 -16 0Z"
          fill="#FFD700" stroke="#FFA500" stroke-width="2"/>

    <!-- Bulb base -->
    <rect x="-10" y="20" width="20" height="8" fill="#E6E6E6" stroke="#999" stroke-width="1"/>
    <line x1="-8" y1="23" x2="8" y2="23" stroke="#999" stroke-width="1"/>
    <line x1="-8" y1="25" x2="8" y2="25" stroke="#999" stroke-width="1"/>

    <!-- Light rays -->
    <g stroke="#FFD700" stroke-width="2" stroke-linecap="round">
      <line x1="0" y1="-22" x2="0" y2="-28"/>
      <line x1="16" y1="-16" x2="20" y2="-20"/>
      <line x1="22" y1="0" x2="28" y2="0"/>
      <line x1="-16" y1="-16" x2="-20" y2="-20"/>
      <line x1="-22" y1="0" x2="-28" y2="0"/>
    </g>
  </g>

  <!-- Note/paper -->
  <g transform="translate(64, 85)">
    <rect x="-20" y="-12" width="40" height="24" rx="2" fill="white" stroke="#333" stroke-width="2"/>
    <!-- Lines on paper -->
    <line x1="-14" y1="-4" x2="14" y2="-4" stroke="#999" stroke-width="1"/>
    <line x1="-14" y1="0" x2="14" y2="0" stroke="#999" stroke-width="1"/>
    <line x1="-14" y1="4" x2="8" y2="4" stroke="#999" stroke-width="1"/>

    <!-- Pencil tip pointing to paper -->
    <g transform="rotate(-45) translate(12, -12)">
      <rect x="0" y="0" width="4" height="12" fill="#F39C12"/>
      <polygon points="0,12 2,16 4,12" fill="#333"/>
    </g>
  </g>
</svg>
